PathFileType	4	(X/Y/Z)	C:\Users\WrightLab\Desktop\Jo\P3_25.trc
DataRate	CameraRate	NumFrames	NumMarkers	Units	OrigDataRate	OrigDataStartFrame	OrigNumFrames
100.00	100.00	       10	19	mm	100.00	288	       575
Frame#	Time	Headset_Front			Headset_Back			Headset_Left			Headset_Right			Left_Shoulder			Right_Shoulder			Sternum			C7			Left Elbow			Right Elbow			Left Wrist			Right Wrist			Left ASIS			Right ASIS			S2			Left Knee			Right Knee			Left Ankle			Right Ankle			
		X1	Y1	Z1	X2	Y2	Z2	X3	Y3	Z3	X4	Y4	Z4	X5	Y5	Z5	X6	Y6	Z6	X7	Y7	Z7	X8	Y8	Z8	X9	Y9	Z9	X10	Y10	Z10	X11	Y11	Z11	X12	Y12	Z12	X13	Y13	Z13	X14	Y14	Z14	X15	Y15	Z15	X16	Y16	Z16	X17	Y17	Z17	X18	Y18	Z18	X19	Y19	Z19	

288	2.870	-4.93771	1522.23181	1231.07434	102.70708	1590.01880	1067.31726				-112.77265	1553.29297	1128.18884	172.53804	1358.78174	951.82550	-180.18335	1370.02124	1022.73499	27.72237	1247.02917	1117.72815	-17.68307	1415.09875	943.50348	229.07410	1024.68701	917.83008	-267.73499	1025.67749	1049.63525	273.17825	846.08289	1013.38794	-216.47134	876.67828	1216.79260	123.83525	894.01917	1086.39868	-124.69526	887.96307	1127.16479	-30.74317	958.26843	893.27350	195.61581	510.45444	1190.42566	-70.93384	457.61771	1063.98169	176.82159	201.88068	1053.85461	-31.92661	129.05220	996.36426	
289	2.880	-3.59398	1522.58752	1239.47205							-110.48228	1553.41479	1136.17822	174.76674	1358.74536	961.61145	-178.35587	1369.86890	1030.72498	29.37597	1246.27856	1126.50281	-15.47066	1414.56848	951.59167	232.05644	1024.41602	926.59259	-264.74069	1024.41858	1057.82593	276.37170	845.94128	1022.18750	-214.32143	877.37488	1225.66052	125.61285	894.05914	1095.66370	-123.04282	886.41461	1130.82104	-28.16305	958.51630	900.93256	196.76495	511.71179	1200.96118	-69.83133	457.00510	1065.88794	183.04709	195.31024	1080.93872	-31.60278	129.49213	996.59949	
290	2.890	-1.81018	1522.21997	1247.89026	108.03278	1588.78271	1084.24158				-108.35559	1553.59424	1144.16919	177.17017	1358.74133	971.80920	-176.11948	1369.37769	1038.43689	30.82996	1245.59741	1135.37952	-12.83088	1414.89880	960.20135	235.34778	1024.65759	936.46393	-262.65198	1024.03430	1066.23804	279.40143	845.74115	1031.18469	-212.16145	877.97021	1234.24939	127.92381	893.73328	1104.22424	-121.94937	886.81750	1138.15662	-24.81223	958.44403	907.94141	197.46230	511.93243	1210.51196	-68.63884	456.10501	1067.46265	189.74495	189.75221	1109.10535	-31.54532	129.58376	996.67841	
291	2.900	-0.20283	1521.57581	1256.48315	110.62104	1587.61658	1092.52246				-106.17014	1553.45422	1152.28357	180.06805	1358.19202	981.50751	-173.85901	1368.53137	1046.35864	32.97678	1244.48267	1143.35205	-10.39796	1414.25842	969.12604	238.31799	1024.36072	945.27637	-260.58707	1023.56390	1074.44043	282.70258	845.74353	1040.22180	-210.00940	878.17206	1243.84875	129.52156	893.84113	1113.01270	-119.34265	887.48694	1147.29919	-22.34027	958.15753	915.61615	197.73503	511.32468	1219.63953	-69.17723	456.47821	1069.90088	194.57225	184.06676	1135.58044	-31.51278	129.57980	996.69513	
292	2.910	1.73678	1521.00952	1264.99585	112.36923	1587.44287	1102.55615				-103.94570	1553.27881	1160.33813	181.92728	1357.78479	991.27612	-171.57648	1367.55652	1054.15552	34.69342	1243.59106	1152.21350	-7.58593	1413.71289	977.70959	241.60614	1024.38464	955.26715	-258.02548	1022.55023	1082.81348	285.75146	845.47815	1049.36182	-207.53514	877.61627	1252.33838	131.58446	893.05774	1121.50867	-117.09030	886.36615	1153.30896	-18.31948	958.09705	923.16846	198.15256	510.16766	1227.35205	-68.94523	456.06168	1072.11914	200.11380	178.92682	1163.10059	-31.29453	129.89687	997.33179	
293	2.920	3.47779	1520.57520	1273.38660	115.72243	1586.13867	1109.07385				-101.85948	1552.65869	1168.56104	184.77673	1357.25769	1000.89349	-169.49535	1366.84595	1061.67810	35.83611	1242.90564	1161.25818	-5.20092	1412.77417	986.70636	244.43893	1023.86407	964.37518	-256.16617	1021.87793	1090.76208	288.94412	845.09833	1058.49890	-205.22168	877.25665	1260.72546	133.99416	892.17108	1130.02100	-115.41714	886.19733	1159.09778	-14.96224	957.32898	931.00806	197.75351	508.93298	1235.72192	-68.42313	455.41684	1074.60596	204.51118	175.10919	1191.56750	-31.18485	130.13824	998.03418	
294	2.930	4.96874	1520.12476	1281.96191							-99.49784	1551.97961	1176.78833	187.55661	1356.43115	1010.80682	-167.49313	1365.66833	1069.62195	37.57332	1241.92896	1169.79089	-2.84601	1411.82324	995.69501	247.94202	1023.36346	973.94196	-254.04524	1020.79205	1098.54675	292.52332	844.61578	1067.33423	-203.25554	876.68665	1269.59229	136.12840	891.47571	1139.67981	-113.88198	885.32764	1165.37488	-11.73199	956.86017	938.92023	199.02925	506.16339	1243.85034	-68.36156	455.42673	1077.54785	208.09280	171.62160	1216.81445	-31.17180	130.21175	998.90289	
295	2.940	7.22311	1519.19287	1290.43835	119.54649	1584.45410	1127.88599				-98.06260	1551.54077	1185.03369	189.91367	1356.08911	1020.61212	-165.52745	1364.44275	1077.61316	39.16488	1240.94055	1178.59082	-0.48899	1410.79639	1004.05988	250.76685	1023.12646	983.23755	-251.49284	1019.21533	1106.10291	296.00308	844.42169	1077.33801	-201.27814	875.69745	1277.77295	138.41586	890.57129	1148.41968	-112.07946	884.87897	1172.96350	-8.46217	956.08453	946.66669	198.67790	504.30505	1250.90906	-67.45387	455.32193	1081.20056	210.59810	169.49840	1243.33777	-31.07835	130.38350	999.04266	
296	2.950	8.71272	1518.59338	1299.07373	121.09053	1583.45898	1137.34216				-95.95420	1550.70532	1193.43274	192.26338	1354.69629	1030.27905	-163.30577	1363.22778	1085.48157	40.67564	1240.16772	1187.80737	2.08875	1409.82495	1012.78491	254.37271	1022.37994	992.71362	-248.86862	1017.75848	1114.23547	299.35358	843.71814	1086.62903	-199.20226	874.55481	1285.42590	141.01616	889.80756	1157.87988	-110.15984	884.34332	1181.72913	-4.92601	955.12207	955.07190	199.13951	502.06613	1257.26477	-67.04949	454.46683	1084.15784	213.51552	168.59547	1269.79736	-31.17133	130.29053	999.67303	
297	2.960	10.47982	1517.71277	1307.73950	124.04697	1582.12305	1144.81018				-93.84442	1549.74841	1201.79211	194.50964	1354.08008	1039.40039	-161.22258	1361.83826	1093.35193	42.88694	1239.01636	1196.52356	4.48807	1408.79089	1021.85663	257.33585	1021.68353	1002.77075	-246.51314	1016.38629	1121.99927	301.57907	841.88989	1096.96423	-196.90381	872.78180	1293.06812	143.83261	888.61401	1168.32629	-108.59543	883.40839	1189.51489	-1.62655	954.28156	963.36224	199.89894	500.14886	1264.66602	-66.09216	454.04358	1088.41968	215.26570	168.23235	1295.39673	-31.14231	130.28419	1000.49921	
